<svg width="24" height="24" viewBox="0 0 24 24" fill="none" xmlns="http://www.w3.org/2000/svg">
<g clip-path="url(#clip0_467_642)">
<path d="M23.0398 8.86919C22.262 7.73681 21.3359 6.7137 20.2864 5.82725L23.1182 2.99641C23.69 2.39099 23.6628 1.43663 23.0574 0.86481C22.4757 0.315324 21.566 0.315983 20.9851 0.866271L17.722 4.13035C15.9456 3.24271 13.9847 2.78738 11.999 2.80137C7.53392 2.84411 3.38772 5.12273 0.958174 8.86919C-0.319391 10.7481 -0.319391 13.2168 0.958174 15.0958C1.73601 16.2282 2.66205 17.2513 3.71159 18.1378L0.879763 20.9716C0.290694 21.5606 0.290694 22.5157 0.879763 23.1047C1.46883 23.6938 2.4239 23.6938 3.01292 23.1047L6.276 19.8406C8.05235 20.7283 10.0133 21.1836 11.999 21.1696C16.4641 21.127 20.6102 18.8483 23.0398 15.1018C24.3201 13.2215 24.3201 10.7495 23.0398 8.86919ZM3.44521 13.3929C2.86632 12.5439 2.86632 11.4271 3.44521 10.5782C5.29889 7.63729 8.52272 5.84294 11.999 5.81721C13.1705 5.81151 14.3335 6.01583 15.433 6.42037L13.5692 8.28314C11.525 7.41535 9.16438 8.36904 8.29663 10.4132C7.87037 11.4173 7.87037 12.5516 8.29663 13.5557L5.84682 16.0066C4.92262 15.2576 4.11349 14.377 3.44521 13.3929ZM20.5528 13.3929C18.699 16.3337 15.4752 18.1281 11.999 18.1538C10.8275 18.1595 9.66443 17.9552 8.56499 17.5507L10.4287 15.6869C12.4729 16.5547 14.8336 15.601 15.7013 13.5568C16.1276 12.5527 16.1276 11.4184 15.7013 10.4143L18.1512 7.9645C19.0753 8.7135 19.8844 9.59411 20.5527 10.5782C21.1317 11.4271 21.1317 12.5439 20.5528 13.3929Z" fill="#464646"/>
</g>
<defs>
<clipPath id="clip0_467_642">
<rect width="24" height="24" fill="white"/>
</clipPath>
</defs>
</svg>
